<?xml version="1.0" encoding="UTF-8"?>
<svg id="Calque_2" data-name="Calque 2" xmlns="http://www.w3.org/2000/svg" xmlns:xlink="http://www.w3.org/1999/xlink" viewBox="0 0 648.73 448.76">
  <defs>
    <style>
      .cls-1 {
        fill: none;
        stroke: #002742;
        stroke-miterlimit: 10;
        stroke-width: 3.73px;
      }

      .cls-2 {
        fill: url(#Dégradé_sans_nom_4);
      }

      .cls-3 {
        fill: url(#Dégradé_sans_nom_2);
      }

      .cls-4 {
        fill: url(#Dégradé_sans_nom_3);
      }

      .cls-5 {
        fill: url(#Dégradé_sans_nom_3-3);
      }

      .cls-6 {
        fill: url(#Dégradé_sans_nom_3-2);
      }

      .cls-7 {
        fill: url(#Dégradé_sans_nom_3-4);
      }

      .cls-8 {
        fill: #002742;
      }
    </style>
    <linearGradient id="Dégradé_sans_nom_3" data-name="Dégradé sans nom 3" x1="119.38" y1="193.7" x2="124.3" y2="434.35" gradientUnits="userSpaceOnUse">
      <stop offset=".11" stop-color="#fff"/>
      <stop offset=".17" stop-color="#f7f8f9"/>
      <stop offset=".25" stop-color="#e2e7ea"/>
      <stop offset=".35" stop-color="#c0cad0"/>
      <stop offset=".47" stop-color="#91a2ad"/>
      <stop offset=".6" stop-color="#546e80"/>
      <stop offset=".73" stop-color="#0c314b"/>
      <stop offset=".75" stop-color="#002742"/>
    </linearGradient>
    <linearGradient id="Dégradé_sans_nom_2" data-name="Dégradé sans nom 2" x1="556.53" y1="129.14" x2="572.37" y2="308.8" gradientUnits="userSpaceOnUse">
      <stop offset=".11" stop-color="#fff"/>
      <stop offset=".16" stop-color="#f5f7f8"/>
      <stop offset=".25" stop-color="#dde2e6"/>
      <stop offset=".37" stop-color="#b5c0c8"/>
      <stop offset=".5" stop-color="#7d919f"/>
      <stop offset=".65" stop-color="#37566b"/>
      <stop offset=".75" stop-color="#002742"/>
    </linearGradient>
    <linearGradient id="Dégradé_sans_nom_4" data-name="Dégradé sans nom 4" x1="343.15" y1="-153.61" x2="353.85" y2="382.82" gradientUnits="userSpaceOnUse">
      <stop offset=".11" stop-color="#fff"/>
      <stop offset=".14" stop-color="#e1e5e8"/>
      <stop offset=".19" stop-color="#b2bec6"/>
      <stop offset=".25" stop-color="#879aa6"/>
      <stop offset=".31" stop-color="#637a8b"/>
      <stop offset=".38" stop-color="#446074"/>
      <stop offset=".45" stop-color="#2b4b62"/>
      <stop offset=".53" stop-color="#173b53"/>
      <stop offset=".63" stop-color="#0a2f49"/>
      <stop offset=".74" stop-color="#022843"/>
      <stop offset=".96" stop-color="#002742"/>
    </linearGradient>
    <linearGradient id="Dégradé_sans_nom_3-2" data-name="Dégradé sans nom 3" x1="441.12" y1="74.91" x2="432.76" y2="210.28" gradientTransform="translate(260.31 -337.96) rotate(57)" xlink:href="#Dégradé_sans_nom_3"/>
    <linearGradient id="Dégradé_sans_nom_3-3" data-name="Dégradé sans nom 3" x1="258.57" y1="66.61" x2="266.85" y2="201.98" gradientTransform="translate(80.28 -129.55) rotate(33)" xlink:href="#Dégradé_sans_nom_3"/>
    <linearGradient id="Dégradé_sans_nom_3-4" data-name="Dégradé sans nom 3" x1="350.07" y1="246.33" x2="357.86" y2="117.42" xlink:href="#Dégradé_sans_nom_3"/>
  </defs>
  <g id="Calque_1-2" data-name="Calque 1">
    <path class="cls-4" d="M237.06,183.03S52.86,75.43,7.27,204.91c-45.59,129.48,137.69,68.61,152.28,61.21,14.59-7.41,69.3-16.52,77.51-7.41s0-75.68,0-75.68Z"/>
    <path class="cls-3" d="M479.51,230.68s16.44-25.49,55.88-34.44c39.44-8.96,156.62-41.34,96.49-105.16-60.13-63.81-150.21,40.66-160.42,65.86-10.21,25.2,8.04,73.74,8.04,73.74Z"/>
    <ellipse class="cls-2" cx="350.1" cy="194.82" rx="181.13" ry="158.28"/>
    <g>
      <ellipse class="cls-6" cx="441.38" cy="70.74" rx="72.78" ry="65.6" transform="translate(141.66 402.38) rotate(-57)"/>
      <ellipse class="cls-5" cx="258.82" cy="70.74" rx="65.6" ry="72.78" transform="translate(3.23 152.38) rotate(-33)"/>
    </g>
    <path class="cls-7" d="M414.68,245.89c0,39.03-28.91,23.09-64.57,23.09s-64.57,15.94-64.57-23.09,28.91-70.66,64.57-70.66,64.57,31.64,64.57,70.66Z"/>
    <path class="cls-1" d="M460.56,34.85c6.38-.19,11.97-6.25,11.65-12.62-2.73-2.04-6.99-1.62-9.27.91s-2.26,6.81.04,9.32c3.08,3.35,9.09,3.38,11.2,7.41,1.76,3.37-.45,7.61-3.54,9.82-2.72,1.95-6.23,2.93-9.51,2.23s-6.21-3.21-7-6.47c-1.25-5.1,2.98-10.23,7.95-11.91s10.4-.8,15.57.09c1.61,3.93.25,8.87-3.15,11.43s-8.52,2.5-11.85-.13c-2.51-1.98-3.92-5.09-6.36-7.17s-6.96-2.44-8.23.5c-1.31,3.03,2.01,5.92,4.86,7.57,1.62.94,3.29,1.89,5.15,2.1s3.95-.56,4.74-2.25c1.36-2.94-1.84-5.91-4.74-7.36s-6.45-3.41-6.28-6.65c2.77-.83,6.04.77,7.08,3.47"/>
    <path class="cls-1" d="M222.94,34.85c6.38-.19,11.97-6.25,11.65-12.62-2.73-2.04-6.99-1.62-9.27.91s-2.26,6.81.04,9.32c3.08,3.35,9.09,3.38,11.2,7.41,1.76,3.37-.45,7.61-3.54,9.82-2.72,1.95-6.23,2.93-9.51,2.23s-6.21-3.21-7-6.47c-1.25-5.1,2.98-10.23,7.95-11.91s10.4-.8,15.57.09c1.61,3.93.25,8.87-3.15,11.43s-8.52,2.5-11.85-.13c-2.51-1.98-3.92-5.09-6.36-7.17s-6.96-2.44-8.23.5c-1.31,3.03,2.01,5.92,4.86,7.57,1.62.94,3.29,1.89,5.15,2.1s3.95-.56,4.74-2.25c1.36-2.94-1.84-5.91-4.74-7.36s-6.45-3.41-6.28-6.65c2.77-.83,6.04.77,7.08,3.47"/>
    <path class="cls-8" d="M202.1,423.88c21.55-23.21,43.06-47.18,61.95-72.56,5.07-7.16,10.4-14.26,13.43-22.3.05-.12.05-.06.1-.1.04,0,.06.19.15.26l15.59-3.6c4.15,14.11-18.22,52.75-25.5,66.49-10.72,19.3-21.89,38.01-33.68,56.68,0,0-32.04-24.88-32.04-24.88h0Z"/>
    <path class="cls-8" d="M362.64,279.52c-6.81,31.11-13.67,62.13-21.24,93.13-2.3,9.29-4.67,18.88-7.59,28.08-.65,1.76-1.33,3.52-2.04,5.28l-39.5-21.3c2.54-3.37,4.63-7.62,6.68-11.34,16.99-32.49,32.71-65.84,48.53-98.99,0,0,15.15,5.14,15.15,5.14h0Z"/>
  </g>
</svg>