<?xml version="1.0" encoding="UTF-8"?>
<svg id="Calque_2" data-name="Calque 2" xmlns="http://www.w3.org/2000/svg" xmlns:xlink="http://www.w3.org/1999/xlink" viewBox="0 0 746.41 670.15">
  <defs>
    <style>
      .cls-1 {
        fill: url(#Dégradé_sans_nom_7);
      }

      .cls-2 {
        stroke: url(#Dégradé_sans_nom);
      }

      .cls-2, .cls-3 {
        stroke-width: 16px;
      }

      .cls-2, .cls-3, .cls-4 {
        fill: none;
        stroke-miterlimit: 10;
      }

      .cls-3 {
        stroke: url(#Dégradé_sans_nom_2);
      }

      .cls-4 {
        stroke: #002742;
        stroke-width: 3.73px;
      }

      .cls-5 {
        fill: url(#Dégradé_sans_nom_9);
      }

      .cls-6 {
        fill: url(#Dégradé_sans_nom_4);
      }

      .cls-7 {
        fill: url(#Dégradé_sans_nom_12);
      }

      .cls-8 {
        fill: url(#Dégradé_sans_nom_3);
      }

      .cls-9 {
        fill: url(#Dégradé_sans_nom_5);
      }

      .cls-10 {
        fill: url(#Dégradé_sans_nom_10);
      }

      .cls-11 {
        fill: url(#Dégradé_sans_nom_8);
      }
    </style>
    <linearGradient id="Dégradé_sans_nom" data-name="Dégradé sans nom" x1="311.52" y1="57.57" x2="393.41" y2="57.57" gradientTransform="translate(0 669.89) scale(1 -1)" gradientUnits="userSpaceOnUse">
      <stop offset="0" stop-color="#004db9"/>
      <stop offset="1" stop-color="#160533"/>
    </linearGradient>
    <linearGradient id="Dégradé_sans_nom_2" data-name="Dégradé sans nom 2" x1="404.71" y1="104.2" x2="462.37" y2="104.2" gradientTransform="translate(0 669.89) scale(1 -1)" gradientUnits="userSpaceOnUse">
      <stop offset="0" stop-color="#004db9"/>
      <stop offset="1" stop-color="#160533"/>
    </linearGradient>
    <linearGradient id="Dégradé_sans_nom_3" data-name="Dégradé sans nom 3" x1="654.2" y1="287.29" x2="670.04" y2="107.63" gradientTransform="translate(0 669.89) scale(1 -1)" gradientUnits="userSpaceOnUse">
      <stop offset=".11" stop-color="#fff"/>
      <stop offset=".16" stop-color="#f5f7f8"/>
      <stop offset=".25" stop-color="#dde2e6"/>
      <stop offset=".37" stop-color="#b5c0c8"/>
      <stop offset=".5" stop-color="#7d919f"/>
      <stop offset=".65" stop-color="#37566b"/>
      <stop offset=".75" stop-color="#002742"/>
    </linearGradient>
    <linearGradient id="Dégradé_sans_nom_4" data-name="Dégradé sans nom 4" x1="142.67" y1="301.44" x2="610.97" y2="301.44" gradientTransform="translate(0 669.89) scale(1 -1)" gradientUnits="userSpaceOnUse">
      <stop offset="0" stop-color="#004db9"/>
      <stop offset="1" stop-color="#160533"/>
    </linearGradient>
    <linearGradient id="Dégradé_sans_nom_5" data-name="Dégradé sans nom 5" x1="48.7" y1="340.66" x2="55.29" y2="18.61" gradientTransform="translate(315.04 697.65) rotate(-44.68) scale(1 -1)" gradientUnits="userSpaceOnUse">
      <stop offset=".11" stop-color="#fff"/>
      <stop offset=".17" stop-color="#f7f8f9"/>
      <stop offset=".25" stop-color="#e2e7ea"/>
      <stop offset=".35" stop-color="#c0cad0"/>
      <stop offset=".47" stop-color="#91a2ad"/>
      <stop offset=".6" stop-color="#546e80"/>
      <stop offset=".73" stop-color="#0c314b"/>
      <stop offset=".75" stop-color="#002742"/>
    </linearGradient>
    <linearGradient id="Dégradé_sans_nom_12" data-name="Dégradé sans nom 12" x1="178.19" y1="569.01" x2="553.14" y2="272.67" gradientTransform="translate(0 669.89) scale(1 -1)" gradientUnits="userSpaceOnUse">
      <stop offset=".21" stop-color="#915e13"/>
      <stop offset="1" stop-color="#742e0a"/>
    </linearGradient>
    <linearGradient id="Dégradé_sans_nom_7" data-name="Dégradé sans nom 7" x1="473.77" y1="290.4" x2="522.24" y2="70.36" gradientTransform="translate(0 669.89) scale(1 -1)" gradientUnits="userSpaceOnUse">
      <stop offset=".11" stop-color="#fff"/>
      <stop offset=".21" stop-color="#d9dfe3"/>
      <stop offset=".62" stop-color="#3e5c70"/>
      <stop offset=".8" stop-color="#002742"/>
    </linearGradient>
    <linearGradient id="Dégradé_sans_nom_8" data-name="Dégradé sans nom 8" x1="281.98" y1="652.72" x2="548.53" y2="230.25" gradientTransform="translate(0 669.89) scale(1 -1)" gradientUnits="userSpaceOnUse">
      <stop offset="0" stop-color="red"/>
      <stop offset="1" stop-color="#500000"/>
    </linearGradient>
    <linearGradient id="Dégradé_sans_nom_9" data-name="Dégradé sans nom 9" x1="518.8" y1="397.04" x2="626.19" y2="289.65" gradientTransform="translate(113.11 -181.25) rotate(80.78) scale(1 -1)" gradientUnits="userSpaceOnUse">
      <stop offset="0" stop-color="#fff"/>
      <stop offset=".16" stop-color="#fcfcfc"/>
      <stop offset=".27" stop-color="#f3f5f6"/>
      <stop offset=".36" stop-color="#e4e8eb"/>
      <stop offset=".44" stop-color="#ced5db"/>
      <stop offset=".52" stop-color="#b2bec6"/>
      <stop offset=".59" stop-color="#90a1ad"/>
      <stop offset=".66" stop-color="#677e8e"/>
      <stop offset=".73" stop-color="#38566b"/>
      <stop offset=".79" stop-color="#042a45"/>
      <stop offset=".8" stop-color="#002742"/>
    </linearGradient>
    <linearGradient id="Dégradé_sans_nom_10" data-name="Dégradé sans nom 10" x1="402.6" y1="393.61" x2="509.99" y2="286.22" gradientTransform="translate(0 669.89) scale(1 -1)" gradientUnits="userSpaceOnUse">
      <stop offset="0" stop-color="#fff"/>
      <stop offset=".16" stop-color="#fcfcfc"/>
      <stop offset=".27" stop-color="#f3f5f6"/>
      <stop offset=".36" stop-color="#e4e8eb"/>
      <stop offset=".44" stop-color="#ced5db"/>
      <stop offset=".52" stop-color="#b2bec6"/>
      <stop offset=".59" stop-color="#90a1ad"/>
      <stop offset=".66" stop-color="#677e8e"/>
      <stop offset=".73" stop-color="#38566b"/>
      <stop offset=".79" stop-color="#042a45"/>
      <stop offset=".8" stop-color="#002742"/>
    </linearGradient>
  </defs>
  <path class="cls-2" d="M317.84,665.24s71.35-91.89,67.41-108.94"/>
  <path class="cls-3" d="M454.79,505.87s-35.32,104.08-43.04,118.41"/>
  <path class="cls-8" d="M577.19,484.14s16.44-25.49,55.88-34.44c39.44-8.96,156.62-41.34,96.49-105.16-60.13-63.81-150.21,40.66-160.42,65.86s8.04,73.74,8.04,73.74h.01Z"/>
  <path class="cls-6" d="M581.06,529.39c-93.88,64.17-317.88,45.5-401.78,0-85.44-46.35,1.32-257.16,32.17-363.31l331.58,5.41c-31.15,128.65,132.94,293.03,38.03,357.9h0Z"/>
  <path class="cls-9" d="M212.09,300.31S-64.44,371.23,14.01,537.35c78.45,166.12,195.59-64.27,202.5-85.04,6.92-20.78,50.4-80.93,66.79-79.98,16.39.96-71.21-72.02-71.21-72.02h0Z"/>
  <path class="cls-7" d="M183.1,183.58c0,11.39-68.53,146.43-66.75,157.32,44.79,62.15,224.22,94.33,265.03,22.67,135.61-238.13,236.46,31.63,208.03-136.07-18.97-111.9-92.01-205.5-205.51-205.5s-200.79,48.07-200.79,161.57h-.01Z"/>
  <path class="cls-1" d="M583.64,482.17c-55.03-39.18-113.91-36.38-175.88,0-44.77-41.48-52.36-64.58,0-82.08,55.3-18.48,122.44-17.83,175.88,0,23.77,7.93,9.35,49.2,0,82.08h0Z"/>
  <path class="cls-11" d="M421.91,0h-73.02C230,0,133.63,94.53,133.63,211.14h503.54C637.17,94.53,540.8,0,421.91,0ZM212.77,210.47c0-79.96,66.09-144.78,147.6-144.78h50.07c81.52,0,147.61,64.82,147.61,144.78H212.77Z"/>
  <circle class="cls-5" cx="556.75" cy="310.79" r="54.23" transform="translate(160.79 810.57) rotate(-80.78)"/>
  <path class="cls-4" d="M578.83,309.1c6.38-.19,11.97-6.25,11.65-12.62-2.73-2.04-6.99-1.62-9.27.91s-2.26,6.81.04,9.32c3.08,3.35,9.09,3.38,11.2,7.41,1.76,3.37-.45,7.61-3.54,9.82-2.72,1.95-6.23,2.93-9.51,2.23s-6.21-3.21-7-6.47c-1.25-5.1,2.98-10.23,7.95-11.91s10.4-.8,15.57.09c1.61,3.93.25,8.87-3.15,11.43s-8.52,2.5-11.85-.13c-2.51-1.98-3.92-5.09-6.36-7.17s-6.96-2.44-8.23.5c-1.31,3.03,2.01,5.92,4.86,7.57,1.62.94,3.29,1.89,5.15,2.1s3.95-.56,4.74-2.25c1.36-2.94-1.84-5.91-4.74-7.36s-6.45-3.41-6.28-6.65c2.77-.83,6.04.77,7.08,3.47"/>
  <circle class="cls-10" cx="440.54" cy="314.22" r="54.23"/>
  <path class="cls-4" d="M440.54,314.22c6.38-.19,11.97-6.25,11.65-12.62-2.73-2.04-6.99-1.62-9.27.91s-2.26,6.81.04,9.32c3.08,3.35,9.09,3.38,11.2,7.41,1.76,3.37-.45,7.61-3.54,9.82-2.72,1.95-6.23,2.93-9.51,2.23s-6.21-3.21-7-6.47c-1.25-5.1,2.98-10.23,7.95-11.91s10.4-.8,15.57.09c1.61,3.93.25,8.87-3.15,11.43s-8.52,2.5-11.85-.13c-2.51-1.98-3.92-5.09-6.36-7.17s-6.96-2.44-8.23.5c-1.31,3.03,2.01,5.92,4.86,7.57,1.62.94,3.29,1.89,5.15,2.1s3.95-.56,4.74-2.25c1.36-2.94-1.84-5.91-4.74-7.36s-6.45-3.41-6.28-6.65c2.77-.83,6.04.77,7.08,3.47"/>
</svg>